# xmcd CD database file
# Generated: Fri May 16 13:54:44 2003 by KSCD
# 
# Track frame offsets:
#       150
#       15119
#       30759
#       42250
#       56977
#       72737
#       85981
#       99651
#       112533
#       127199
#       141098
#       154295
#       168906
#       182111
#       194700
#       208684
#       222721
#       236879
#       255145
#       268988
#       281608
#       295800
#       309853
#       322774
#
# Disc length: 4476 seconds
#
# Revision: 1
# Processed by: cddbd v1.4PL0 Copyright (c) Steve Scherf et al.
# Submitted via: Kscd 1.3.3
#
DISCID=62117a18
DTITLE=Cab Calloway and His Orchestra - The Early Years 1930-1934
DYEAR=1900
DGENRE=
TTITLE0=Black Rythm
TTITLE1=
TTITLE2=
TTITLE3=
TTITLE4=
TTITLE5=
TTITLE6=
TTITLE7=
TTITLE8=
TTITLE9=
TTITLE10=
TTITLE11=
TTITLE12=
TTITLE13=
TTITLE14=
TTITLE15=
TTITLE16=
TTITLE17=
TTITLE18=
TTITLE19=
TTITLE20=
TTITLE21=
TTITLE22=
TTITLE23=
EXTD=
EXTT0=
EXTT1=
EXTT2=
EXTT3=
EXTT4=
EXTT5=
EXTT6=
EXTT7=
EXTT8=
EXTT9=
EXTT10=
EXTT11=
EXTT12=
EXTT13=
EXTT14=
EXTT15=
EXTT16=
EXTT17=
EXTT18=
EXTT19=
EXTT20=
EXTT21=
EXTT22=
EXTT23=
PLAYORDER=
